<?xml version="1.0" encoding="UTF-8"?>
<!-- Created with Inkscape (http://www.inkscape.org/) -->
<svg id="svg9066" width="512" height="512" version="1.1" viewBox="0 0 135.47 135.47" xmlns="http://www.w3.org/2000/svg" xmlns:cc="http://creativecommons.org/ns#" xmlns:dc="http://purl.org/dc/elements/1.1/" xmlns:rdf="http://www.w3.org/1999/02/22-rdf-syntax-ns#">
 <metadata id="metadata9063">
  <rdf:RDF>
   <cc:Work rdf:about="">
    <dc:format>image/svg+xml</dc:format>
    <dc:type rdf:resource="http://purl.org/dc/dcmitype/StillImage"/>
    <dc:title/>
   </cc:Work>
  </rdf:RDF>
 </metadata>
 <g id="layer1" transform="translate(0 -161.53)">
  <g id="g9120" transform="matrix(.26458 0 0 .26458 -333.62 91.203)">
   <g id="layer3" transform="matrix(0 -.38744 .38744 0 42.502 333.65)">
    <path id="path3018" d="m-1109.2 3147.1c-17.832 1.0511-31.905 18.221-31.905 39.332v1242.6c0 21.793 15.006 39.333 33.651 39.333h40.741v-1321.3h-40.741c-0.5826 0-1.1709-0.029-1.7462 0z" fill="#ff0302"/>
    <path id="rect3006" d="m-993.89 3147.1v1321.3h43.546c18.645 0 33.651-17.539 33.651-39.333v-1242.6c0-21.792-15.006-39.333-33.651-39.333z" fill="#120ffe"/>
    <rect id="rect3010" x="-1066.7" y="3147.1" width="72.805" height="1321.3" rx="0" ry="0" fill="#01d318"/>
    <path id="path3813" d="m-511.27 3415.2c-8.8675 0-17.622 0.2912-26.346 0.8706 172.08 13.174 308.2 180.97 308.2 386.09 0 205.12-136.11 372.97-308.2 386.14 8.7238 0.5503 17.479 0.8706 26.346 0.8706 220.84 0 399.88-173.3 399.88-387.02 0-213.72-179.05-386.96-399.88-386.96z"/>
    <path id="path3042" d="m-595.51 3147.1c343 4.5594 619.7 297.73 619.7 658.71 0 360.99-276.7 654.15-619.7 658.71 423.88-3.702 766.15-297.19 766.15-658.71s-342.27-655.01-766.15-658.71z"/>
    <g id="flowRoot9149" transform="matrix(0 2.581 -2.581 0 138.95 3144.8)" aria-label="MOV">
     <path id="path9214" d="m47.362 273.3h41.471l28.776 67.624 28.945-67.624h41.387v126.36h-30.807v-92.422l-29.115 68.132h-20.651l-29.115-68.132v92.422h-30.892z"/>
     <path id="path9216" d="m277.74 294.63q-14.896 0-23.105 11.003-8.2096 11.003-8.2096 30.977 0 19.889 8.2096 30.892 8.2096 11.003 23.105 11.003 14.98 0 23.19-11.003 8.2096-11.003 8.2096-30.892 0-19.974-8.2096-30.977-8.2096-11.003-23.19-11.003zm0-23.613q30.469 0 47.734 17.435 17.266 17.435 17.266 48.158 0 30.638-17.266 48.073-17.266 17.435-47.734 17.435-30.384 0-47.734-17.435-17.266-17.435-17.266-48.073 0-30.723 17.266-48.158 17.35-17.435 47.734-17.435z"/>
     <path id="path9218" d="m347.48 273.3h32.754l33.516 93.268 33.431-93.268h32.754l-46.803 126.36h-38.848z"/>
    </g>
   </g>
  </g>
 </g>
</svg>
